<?xml version="1.0" encoding="UTF-8"?>
<svg xmlns="http://www.w3.org/2000/svg" viewBox="0 0 640 512">
  <path d="M256 301.7V368c0 10.3-10.9 18.1-21.4 16.3C121.7 360.3 32 270.2 32 160.3C32 75.8 106.3 0 191.6 0c28.3 0 56 7.4 80.4 20.9C280 27 288 43.1 288 60.2V112c0 15.7-12.7 28.4-28.4 28.4h-60c-9.7 0-15.6-10.5-10.5-18.7 7.6-12.2 14.4-25 18.4-39.7 3.4-12.5-7.3-24.1-20.2-24.1-33.4 0-60.3 27.5-60 60.8.2 28.3 21.7 51.8 49.9 56.3 30.4 4.8 59.8-11.2 72.8-37.8 3.7-7.5 13.2-7.5 16.9 0 17.9 36.1 48.4 66.7 84.3 84.5 7.6 3.8 7.5 13.5 0 17.2-11.6 5.7-23.9 10.1-36.8 13.2zM240 448c0 8.8 7.2 16 16 16h480c8.8 0 16-7.2 16-16v-16c0-8.8-7.2-16-16-16H256c-8.8 0-16 7.2-16 16v16zm272-304v32c0 6.6 5.4 12 12 12h40c6.6 0 12-5.4 12-12v-32c0-6.6-5.4-12-12-12h-40c-6.6 0-12 5.4-12 12zm0 96v32c0 6.6 5.4 12 12 12h40c6.6 0 12-5.4 12-12v-32c0-6.6-5.4-12-12-12h-40c-6.6 0-12 5.4-12 12zm160-96v32c0 6.6 5.4 12 12 12h40c6.6 0 12-5.4 12-12v-32c0-6.6-5.4-12-12-12h-40c-6.6 0-12 5.4-12 12zm0 96v32c0 6.6 5.4 12 12 12h40c6.6 0 12-5.4 12-12v-32c0-6.6-5.4-12-12-12h-40c-6.6 0-12 5.4-12 12zm0 96v32c0 6.6 5.4 12 12 12h40c6.6 0 12-5.4 12-12v-32c0-6.6-5.4-12-12-12h-40c-6.6 0-12 5.4-12 12zm-320 0v32c0 6.6 5.4 12 12 12h40c6.6 0 12-5.4 12-12v-32c0-6.6-5.4-12-12-12h-40c-6.6 0-12 5.4-12 12zm160 0v32c0 6.6 5.4 12 12 12h40c6.6 0 12-5.4 12-12v-32c0-6.6-5.4-12-12-12h-40c-6.6 0-12 5.4-12 12z" fill="#4e73df"/>
</svg>
