<?xml version="1.0" encoding="UTF-8"?>
<svg xmlns="http://www.w3.org/2000/svg" viewBox="0 0 640 512">
  <path d="M466.5 83.7l-192-80a48.15 48.15 0 0 0-36.9 0l-192 80C27.7 91.1 16 108.6 16 128c0 198.5 114.5 335.7 221.5 380.3 11.8 4.9 25.1 4.9 36.9 0C360.1 472.6 464 349.3 464 128c0-19.4-11.7-36.9-29.5-44.3zM464 400c-3.8 0-7.3-1.7-9.6-4.7-10.2-12.9-15.8-27.9-25.9-41.1-9.2-12.2-23.5-19.2-38.9-19.2H262.9c-28.6 0-57.2 15.1-63.5 46.5-12.2 61-24.7 82.4-64.5 104-3.9 2.1-8.4 3.4-12.9 3.4-16.9 0-37.9-12.7-37.9-28.6 0-7.6 3-15.2 8.4-21 31.8-33.9 45.8-82.4 62.6-124.7.2-.6 2.2-9.6 2.2-9.7 7.8-32.6 19.3-60.9 40.3-83.7 22.3-24.1 52.4-37.2 83-37.2h56.9c32.5 0 63.6 13.1 86.1 36 19.8 20.2 30.8 49.5 37.1 80.6.9 4.3 1.4 8.8 1.9 13.2 2.8 22.5 5.2 44.3 7.8 69.1 1.5 17.9-10.8 32.1-28.6 32.1z" fill="#4e73df"/>
</svg>
